<?xml version="1.0" encoding="UTF-8"?>
<svg id="Yno_Neighborly_Light" data-name="Yno Neighborly Light" xmlns="http://www.w3.org/2000/svg" viewBox="0 0 402 80">
  <defs>
    <style>
      .cls-1 {
        fill: #ffd26c;
      }

      .cls-2 {
        fill: #fff;
      }

      .cls-3 {
        fill: #fbb315;
      }
    </style>
  </defs>
  <g>
    <g>
      <path d="M40,69.5c-16.27,0-29.5-13.23-29.5-29.5s13.23-29.5,29.5-29.5,29.5,13.23,29.5,29.5-13.23,29.5-29.5,29.5Z"/>
      <path class="cls-2" d="M40,11c15.99,0,29,13.01,29,29s-13.01,29-29,29-29-13.01-29-29,13.01-29,29-29M40,10c-16.57,0-30,13.43-30,30s13.43,30,30,30,30-13.43,30-30-13.43-30-30-30h0Z"/>
    </g>
    <path class="cls-3" d="M40.31,17.38c2.84,0,4.26.27,4.26.8,0,.63-.64.98-1.91,1.03-1.54.08-2.98.43-4.31,1.07-1.33.64-2.51,1.51-3.55,2.61-1.04,1.1-1.84,2.34-2.42,3.72-.58,1.38-.87,2.84-.87,4.37,0,1.71.48,3.08,1.45,4.1.97,1.03,2.23,1.54,3.79,1.54,1.44,0,2.7-.6,3.78-1.81,1.08-1.21,1.62-2.62,1.62-4.23,0-1.33-.33-2.57-1-3.73-.67-1.16-1.64-2.13-2.92-2.91-.55-.36-.82-.62-.82-.77,0-.23.39-.57,1.16-1.03.87-.47,1.84-.87,2.92-1.2,1.08-.32,1.98-.49,2.72-.49.85,0,1.66.18,2.42.54.76.36,1.44.88,2.03,1.55.59.67,1.03,1.45,1.35,2.34.31.88.47,1.82.47,2.81,0,1.65-.38,3.28-1.14,4.89-.76,1.61-1.76,2.9-2.99,3.89-1.6,1.27-3.52,2.31-5.77,3.11-2.25.8-4.39,1.2-6.43,1.2s-3.94-.28-5.88-.84c-1.95-.56-3.49-1.3-4.63-2.21-1.52-1.25-2.28-3.02-2.28-5.3,0-1.81.54-3.61,1.63-5.42,1.09-1.81,2.56-3.44,4.41-4.9,1.86-1.46,3.9-2.62,6.14-3.46,2.24-.85,4.5-1.27,6.78-1.27Z"/>
    <path class="cls-2" d="M55.8,53.9c-.7-2.88-4-4.42-4.3-3.89-.3.53,1.22.88,1.64,2.26.91,2.98-1.92,6.44-6.25,7.7-4.32,1.26-7.77.46-8.89-2.35-.57-1.42-.02-2.22-.64-2.41-.61-.19-1.2,1.82-.44,4.17,1.15,3.56,6.01,5.43,11.27,3.9,5.26-1.53,8.49-5.68,7.6-9.36Z"/>
    <path class="cls-1" d="M39.26,16.8c2.83,0,4.25.27,4.25.8,0,.63-.64.97-1.91,1.03-1.54.08-2.97.43-4.3,1.07-1.33.64-2.51,1.5-3.54,2.6-1.04,1.1-1.84,2.34-2.42,3.71-.58,1.38-.87,2.83-.87,4.37,0,1.71.48,3.07,1.45,4.1.97,1.02,2.22,1.54,3.78,1.54,1.44,0,2.7-.6,3.78-1.81,1.08-1.2,1.62-2.61,1.62-4.22,0-1.33-.33-2.57-1-3.73-.67-1.16-1.64-2.12-2.92-2.9-.54-.36-.82-.62-.82-.77,0-.23.39-.57,1.16-1.02.87-.47,1.84-.87,2.91-1.19,1.07-.32,1.98-.48,2.71-.48.85,0,1.65.18,2.42.54.76.36,1.44.88,2.02,1.55.58.67,1.03,1.45,1.34,2.33.31.88.47,1.81.47,2.8,0,1.65-.38,3.28-1.14,4.88-.76,1.6-1.76,2.9-2.99,3.88-1.59,1.27-3.51,2.3-5.76,3.1-2.25.8-4.39,1.19-6.41,1.19s-3.93-.28-5.87-.84c-1.94-.56-3.48-1.3-4.62-2.21-1.52-1.25-2.27-3.02-2.27-5.29,0-1.8.54-3.61,1.63-5.41,1.08-1.8,2.55-3.43,4.4-4.89,1.85-1.46,3.9-2.61,6.13-3.46,2.23-.84,4.49-1.27,6.77-1.27Z"/>
    <path class="cls-3" d="M40.12,17.28c2.83,0,4.25.27,4.25.8,0,.63-.64.98-1.91,1.03-1.54.08-2.97.43-4.3,1.07-1.33.64-2.51,1.5-3.54,2.6-1.04,1.1-1.84,2.34-2.42,3.71-.58,1.38-.87,2.83-.87,4.37,0,1.71.48,3.07,1.45,4.1.97,1.02,2.22,1.54,3.78,1.54,1.44,0,2.7-.6,3.78-1.81,1.08-1.2,1.62-2.61,1.62-4.22,0-1.33-.33-2.57-1-3.73-.67-1.16-1.64-2.12-2.91-2.9-.54-.36-.82-.62-.82-.77,0-.23.39-.57,1.16-1.02.87-.47,1.84-.87,2.91-1.19,1.07-.32,1.98-.48,2.71-.48.85,0,1.65.18,2.42.54.76.36,1.44.88,2.02,1.55.58.67,1.03,1.45,1.34,2.33.31.88.47,1.81.47,2.8,0,1.65-.38,3.28-1.14,4.88-.76,1.6-1.75,2.9-2.99,3.88-1.59,1.27-3.51,2.3-5.76,3.1-2.25.8-4.39,1.19-6.41,1.19s-3.93-.28-5.87-.84c-1.94-.56-3.48-1.3-4.62-2.21-1.52-1.25-2.28-3.02-2.28-5.29,0-1.8.54-3.61,1.63-5.41,1.08-1.8,2.55-3.43,4.4-4.9,1.85-1.46,3.9-2.61,6.13-3.46,2.23-.84,4.49-1.27,6.77-1.27Z"/>
    <path class="cls-2" d="M51.15,22.96c-1.35.29,1.72,5.45-1.61,11.22-.64,1.02-2.2,3.32-5.13,4.92-5.43,2.97-12.84,3.56-18.44,1.23-4.99-2.08-5.24-5.28-5.99-5.03-.75.25.64,5.53,6.85,10.08,2.9,2.13,7.69,2.9,12.49,2.14,0,0,4.42,6.79,5.85,6.25,1.43-.54-.38-7.83-.38-7.83,2.89-1.26,5.48-3.18,7.29-5.81,5.5-7.98.1-17.39-.94-17.17Z"/>
  </g>
  <g>
    <path d="M83.91,42.39l-6.38-9.72h3.79l4.18,6.77,4.22-6.77h3.6l-6.38,9.72v7.27h-3.02v-7.27Z"/>
    <path d="M92.42,38.14h2.74v1.85h.05c.27-.58.69-1.08,1.25-1.5.56-.42,1.32-.64,2.28-.64.77,0,1.42.13,1.96.38s.97.59,1.31,1.01c.34.42.58.9.72,1.44.14.54.22,1.11.22,1.7v7.27h-2.88v-5.83c0-.32-.02-.68-.05-1.07s-.12-.76-.25-1.1c-.14-.34-.35-.63-.64-.86-.29-.23-.68-.35-1.18-.35s-.88.08-1.21.24c-.33.16-.6.38-.82.65-.22.27-.37.58-.47.94-.1.35-.14.72-.14,1.1v6.29h-2.88v-11.52Z"/>
    <path d="M104.62,43.9c0-.91.16-1.74.49-2.48.33-.74.77-1.38,1.33-1.91.56-.53,1.22-.94,1.99-1.22s1.58-.43,2.45-.43,1.68.14,2.45.43,1.43.7,1.99,1.22c.56.53,1,1.16,1.33,1.91.33.74.49,1.57.49,2.48s-.16,1.74-.49,2.48c-.33.74-.77,1.38-1.33,1.91-.56.53-1.22.94-1.99,1.22s-1.58.43-2.45.43-1.68-.14-2.45-.43-1.43-.7-1.99-1.22c-.56-.53-1-1.16-1.33-1.91-.33-.74-.49-1.57-.49-2.48ZM107.5,43.9c0,.45.08.88.23,1.3.15.42.38.78.67,1.1.3.32.65.58,1.07.77.42.19.89.29,1.42.29s1-.1,1.42-.29c.42-.19.77-.45,1.07-.77.3-.32.52-.69.67-1.1.15-.42.23-.85.23-1.3s-.08-.88-.23-1.3c-.15-.42-.38-.78-.67-1.1-.3-.32-.65-.58-1.07-.77-.42-.19-.89-.29-1.42-.29s-1,.1-1.42.29c-.42.19-.77.45-1.07.77-.3.32-.52.69-.67,1.1-.15.42-.23.85-.23,1.3Z"/>
    <path d="M125.2,32.67h4.01l8.23,12.62h.05v-12.62h3.02v16.99h-3.84l-8.4-13.03h-.05v13.03h-3.02v-16.99Z"/>
    <path d="M145.74,44.91c.1.86.43,1.54,1.01,2.02.58.48,1.27.72,2.09.72.72,0,1.32-.15,1.81-.44.49-.3.92-.67,1.28-1.12l2.06,1.56c-.67.83-1.42,1.42-2.26,1.78-.83.35-1.7.53-2.62.53-.86,0-1.68-.14-2.45-.43s-1.43-.7-1.99-1.22c-.56-.53-1-1.16-1.33-1.91-.33-.74-.49-1.57-.49-2.48s.16-1.74.49-2.48c.33-.74.77-1.38,1.33-1.91.56-.53,1.22-.94,1.99-1.22s1.58-.43,2.45-.43c.8,0,1.53.14,2.2.42.66.28,1.23.68,1.7,1.21.47.53.84,1.18,1.1,1.96.26.78.4,1.67.4,2.68v.79h-8.78ZM151.65,42.75c-.02-.85-.28-1.52-.79-2-.51-.49-1.22-.73-2.14-.73-.86,0-1.55.25-2.05.74s-.81,1.16-.92,1.99h5.9Z"/>
    <path d="M156.86,34.23c0-.46.17-.87.52-1.21s.78-.52,1.31-.52.97.16,1.33.49c.36.33.54.74.54,1.24s-.18.91-.54,1.24c-.36.33-.8.49-1.33.49s-.96-.17-1.31-.52c-.34-.34-.52-.75-.52-1.21ZM157.26,38.14h2.88v11.52h-2.88v-11.52Z"/>
    <path d="M175.31,38.14v10.49c0,1.04-.13,1.98-.38,2.82-.26.84-.65,1.55-1.19,2.14-.54.58-1.21,1.04-2.03,1.36-.82.32-1.78.48-2.9.48s-2.09-.14-3.05-.41c-.96-.27-1.85-.77-2.66-1.49l1.73-2.35c.58.53,1.18.94,1.8,1.22.62.29,1.34.43,2.16.43.69,0,1.27-.1,1.74-.29.47-.19.85-.46,1.13-.79.28-.34.48-.74.6-1.21.12-.47.18-1,.18-1.57v-.84h-.05c-.42.56-.97.98-1.66,1.26s-1.39.42-2.11.42c-.86,0-1.65-.16-2.35-.47s-1.31-.73-1.81-1.26-.89-1.15-1.16-1.87c-.27-.72-.41-1.49-.41-2.3s.13-1.64.38-2.38c.26-.74.63-1.38,1.13-1.92.5-.54,1.09-.97,1.79-1.28s1.49-.47,2.39-.47c.82,0,1.58.16,2.28.48.7.32,1.26.83,1.68,1.54h.05v-1.73h2.74ZM169.17,40.44c-.51,0-.98.08-1.39.25-.42.17-.77.4-1.07.7-.3.3-.53.66-.7,1.08-.17.42-.25.89-.25,1.4,0,.46.08.9.25,1.3s.4.75.71,1.06c.3.3.66.54,1.08.72.42.18.86.26,1.34.26.53,0,1-.09,1.43-.26.42-.18.78-.41,1.08-.71s.52-.65.68-1.07c.16-.42.24-.86.24-1.34,0-1.01-.3-1.82-.91-2.45s-1.44-.94-2.5-.94Z"/>
    <path d="M181.46,39.75h.05c.22-.48.62-.92,1.19-1.31.57-.39,1.3-.59,2.2-.59.77,0,1.42.13,1.96.38s.97.59,1.31,1.01c.34.42.58.9.72,1.44.14.54.22,1.11.22,1.7v7.27h-2.88v-5.83c0-.32-.02-.68-.05-1.07s-.12-.76-.25-1.1c-.14-.34-.35-.63-.64-.86-.29-.23-.68-.35-1.18-.35s-.88.08-1.21.24c-.33.16-.6.38-.82.65-.22.27-.37.58-.47.94-.1.35-.14.72-.14,1.1v6.29h-2.88v-18.14h2.88v8.23Z"/>
    <path d="M192.35,31.52h2.88v8.09h.07c.14-.19.33-.39.55-.59.22-.2.5-.39.82-.56.32-.18.69-.32,1.1-.43.42-.11.9-.17,1.44-.17.82,0,1.57.16,2.26.47s1.28.74,1.76,1.28c.49.54.87,1.18,1.14,1.92.27.74.41,1.53.41,2.38s-.13,1.64-.38,2.38c-.26.74-.63,1.38-1.13,1.92s-1.1.97-1.8,1.28-1.5.47-2.38.47c-.82,0-1.58-.16-2.28-.48-.7-.32-1.26-.83-1.68-1.54h-.05v1.73h-2.74v-18.14ZM201.9,43.9c0-.45-.08-.88-.23-1.3-.15-.42-.38-.78-.67-1.1-.3-.32-.65-.58-1.07-.77-.42-.19-.89-.29-1.42-.29s-1,.1-1.42.29c-.42.19-.77.45-1.07.77-.3.32-.52.69-.67,1.1-.15.42-.23.85-.23,1.3s.08.88.23,1.3c.15.42.38.78.67,1.1.3.32.65.58,1.07.77.42.19.89.29,1.42.29s1-.1,1.42-.29c.42-.19.77-.45,1.07-.77.3-.32.52-.69.67-1.1.15-.42.23-.85.23-1.3Z"/>
    <path d="M206.9,43.9c0-.91.16-1.74.49-2.48.33-.74.77-1.38,1.33-1.91.56-.53,1.22-.94,1.99-1.22s1.58-.43,2.45-.43,1.68.14,2.45.43,1.43.7,1.99,1.22c.56.53,1,1.16,1.33,1.91.33.74.49,1.57.49,2.48s-.16,1.74-.49,2.48c-.33.74-.77,1.38-1.33,1.91-.56.53-1.22.94-1.99,1.22s-1.58.43-2.45.43-1.68-.14-2.45-.43-1.43-.7-1.99-1.22c-.56-.53-1-1.16-1.33-1.91-.33-.74-.49-1.57-.49-2.48ZM209.77,43.9c0,.45.08.88.23,1.3.15.42.38.78.67,1.1.3.32.65.58,1.07.77.42.19.89.29,1.42.29s1-.1,1.42-.29c.42-.19.77-.45,1.07-.77.3-.32.52-.69.67-1.1.15-.42.23-.85.23-1.3s-.08-.88-.23-1.3c-.15-.42-.38-.78-.67-1.1-.3-.32-.65-.58-1.07-.77-.42-.19-.89-.29-1.42-.29s-1,.1-1.42.29c-.42.19-.77.45-1.07.77-.3.32-.52.69-.67,1.1-.15.42-.23.85-.23,1.3Z"/>
    <path d="M222.11,38.14h2.88v1.82h.05c.32-.67.78-1.19,1.37-1.56.59-.37,1.27-.55,2.04-.55.18,0,.35.02.52.05s.34.07.52.12v2.78c-.24-.06-.48-.12-.71-.16-.23-.04-.46-.06-.68-.06-.67,0-1.21.12-1.62.37-.41.25-.72.53-.94.85-.22.32-.36.64-.43.96-.07.32-.11.56-.11.72v6.17h-2.88v-11.52Z"/>
    <path d="M231.49,31.52h2.88v18.14h-2.88v-18.14Z"/>
    <path d="M236.13,38.14h3.17l3.21,7.99h.05l2.88-7.99h3l-5.45,13.99c-.21.54-.44,1.02-.68,1.43-.25.41-.54.75-.88,1.03-.34.28-.73.49-1.19.62-.46.14-1,.2-1.64.2-.75,0-1.49-.1-2.21-.29l.36-2.59c.22.08.46.15.71.2.25.06.5.08.76.08.35,0,.65-.03.89-.1s.45-.16.61-.3c.17-.14.31-.31.42-.53.11-.22.23-.48.36-.78l.55-1.37-4.92-11.62Z"/>
  </g>
</svg>