<svg id="Yno_Software_Light" height="60" data-name="Yno Software Light" xmlns="http://www.w3.org/2000/svg" viewBox="0 0 402 80">
  <defs>
    <style>
      .cls-1 {
        fill: #ffd26c;
      }

      .cls-2 {
        fill: #fff;
      }

      .cls-3 {
        fill: #fbb315;
      }
    </style>
  </defs>
  <g>
    <g>
      <path d="M40,69.5c-16.27,0-29.5-13.23-29.5-29.5s13.23-29.5,29.5-29.5,29.5,13.23,29.5,29.5-13.23,29.5-29.5,29.5Z"/>
      <path class="cls-2" d="M40,11c15.99,0,29,13.01,29,29s-13.01,29-29,29-29-13.01-29-29,13.01-29,29-29M40,10c-16.57,0-30,13.43-30,30s13.43,30,30,30,30-13.43,30-30-13.43-30-30-30h0Z"/>
    </g>
    <path class="cls-3" d="M40.31,17.38c2.84,0,4.26.27,4.26.8,0,.63-.64.98-1.91,1.03-1.54.08-2.98.43-4.31,1.07-1.33.64-2.51,1.51-3.55,2.61-1.04,1.1-1.84,2.34-2.42,3.72-.58,1.38-.87,2.84-.87,4.37,0,1.71.48,3.08,1.45,4.1.97,1.03,2.23,1.54,3.79,1.54,1.44,0,2.7-.6,3.78-1.81,1.08-1.21,1.62-2.62,1.62-4.23,0-1.33-.33-2.57-1-3.73-.67-1.16-1.64-2.13-2.92-2.91-.55-.36-.82-.62-.82-.77,0-.23.39-.57,1.16-1.03.87-.47,1.84-.87,2.92-1.2,1.08-.32,1.98-.49,2.72-.49.85,0,1.66.18,2.42.54.76.36,1.44.88,2.03,1.55.59.67,1.03,1.45,1.35,2.34.31.88.47,1.82.47,2.81,0,1.65-.38,3.28-1.14,4.89-.76,1.61-1.76,2.9-2.99,3.89-1.6,1.27-3.52,2.31-5.77,3.11-2.25.8-4.39,1.2-6.43,1.2s-3.94-.28-5.88-.84c-1.95-.56-3.49-1.3-4.63-2.21-1.52-1.25-2.28-3.02-2.28-5.3,0-1.81.54-3.61,1.63-5.42,1.09-1.81,2.56-3.44,4.41-4.9,1.86-1.46,3.9-2.62,6.14-3.46,2.24-.85,4.5-1.27,6.78-1.27Z"/>
    <path class="cls-2" d="M55.8,53.9c-.7-2.88-4-4.42-4.3-3.89-.3.53,1.22.88,1.64,2.26.91,2.98-1.92,6.44-6.25,7.7-4.32,1.26-7.77.46-8.89-2.35-.57-1.42-.02-2.22-.64-2.41-.61-.19-1.2,1.82-.44,4.17,1.15,3.56,6.01,5.43,11.27,3.9,5.26-1.53,8.49-5.68,7.6-9.36Z"/>
    <path class="cls-1" d="M39.26,16.8c2.83,0,4.25.27,4.25.8,0,.63-.64.97-1.91,1.03-1.54.08-2.97.43-4.3,1.07-1.33.64-2.51,1.5-3.54,2.6-1.04,1.1-1.84,2.34-2.42,3.71-.58,1.38-.87,2.83-.87,4.37,0,1.71.48,3.07,1.45,4.1.97,1.02,2.22,1.54,3.78,1.54,1.44,0,2.7-.6,3.78-1.81,1.08-1.2,1.62-2.61,1.62-4.22,0-1.33-.33-2.57-1-3.73-.67-1.16-1.64-2.12-2.92-2.9-.54-.36-.82-.62-.82-.77,0-.23.39-.57,1.16-1.02.87-.47,1.84-.87,2.91-1.19,1.07-.32,1.98-.48,2.71-.48.85,0,1.65.18,2.42.54.76.36,1.44.88,2.02,1.55.58.67,1.03,1.45,1.34,2.33.31.88.47,1.81.47,2.8,0,1.65-.38,3.28-1.14,4.88-.76,1.6-1.76,2.9-2.99,3.88-1.59,1.27-3.51,2.3-5.76,3.1-2.25.8-4.39,1.19-6.41,1.19s-3.93-.28-5.87-.84c-1.94-.56-3.48-1.3-4.62-2.21-1.52-1.25-2.27-3.02-2.27-5.29,0-1.8.54-3.61,1.63-5.41,1.08-1.8,2.55-3.43,4.4-4.89,1.85-1.46,3.9-2.61,6.13-3.46,2.23-.84,4.49-1.27,6.77-1.27Z"/>
    <path class="cls-3" d="M40.12,17.28c2.83,0,4.25.27,4.25.8,0,.63-.64.98-1.91,1.03-1.54.08-2.97.43-4.3,1.07-1.33.64-2.51,1.5-3.54,2.6-1.04,1.1-1.84,2.34-2.42,3.71-.58,1.38-.87,2.83-.87,4.37,0,1.71.48,3.07,1.45,4.1.97,1.02,2.22,1.54,3.78,1.54,1.44,0,2.7-.6,3.78-1.81,1.08-1.2,1.62-2.61,1.62-4.22,0-1.33-.33-2.57-1-3.73-.67-1.16-1.64-2.12-2.91-2.9-.54-.36-.82-.62-.82-.77,0-.23.39-.57,1.16-1.02.87-.47,1.84-.87,2.91-1.19,1.07-.32,1.98-.48,2.71-.48.85,0,1.65.18,2.42.54.76.36,1.44.88,2.02,1.55.58.67,1.03,1.45,1.34,2.33.31.88.47,1.81.47,2.8,0,1.65-.38,3.28-1.14,4.88-.76,1.6-1.75,2.9-2.99,3.88-1.59,1.27-3.51,2.3-5.76,3.1-2.25.8-4.39,1.19-6.41,1.19s-3.93-.28-5.87-.84c-1.94-.56-3.48-1.3-4.62-2.21-1.52-1.25-2.28-3.02-2.28-5.29,0-1.8.54-3.61,1.63-5.41,1.08-1.8,2.55-3.43,4.4-4.9,1.85-1.46,3.9-2.61,6.13-3.46,2.23-.84,4.49-1.27,6.77-1.27Z"/>
    <path class="cls-2" d="M51.15,22.96c-1.35.29,1.72,5.45-1.61,11.22-.64,1.02-2.2,3.32-5.13,4.92-5.43,2.97-12.84,3.56-18.44,1.23-4.99-2.08-5.24-5.28-5.99-5.03-.75.25.64,5.53,6.85,10.08,2.9,2.13,7.69,2.9,12.49,2.14,0,0,4.42,6.79,5.85,6.25,1.43-.54-.38-7.83-.38-7.83,2.89-1.26,5.48-3.18,7.29-5.81,5.5-7.98.1-17.39-.94-17.17Z"/>
    <text/>
  </g>
  <g>
    <path d="M83.91,42.39l-6.38-9.72h3.79l4.18,6.77,4.22-6.77h3.6l-6.38,9.72v7.27h-3.02v-7.27Z"/>
    <path d="M93.42,38.14h2.74v1.85h.05c.27-.58.69-1.08,1.25-1.5.56-.42,1.32-.64,2.28-.64.77,0,1.42.13,1.96.38s.97.59,1.31,1.01c.34.42.58.9.72,1.44.14.54.22,1.11.22,1.7v7.27h-2.88v-5.83c0-.32-.02-.68-.05-1.07s-.12-.76-.25-1.1c-.14-.34-.35-.63-.64-.86-.29-.23-.68-.35-1.18-.35s-.88.08-1.21.24c-.33.16-.6.38-.82.65-.22.27-.37.58-.47.94-.1.35-.14.72-.14,1.1v6.29h-2.88v-11.52Z"/>
    <path d="M106.62,43.9c0-.91.16-1.74.49-2.48.33-.74.77-1.38,1.33-1.91.56-.53,1.22-.94,1.99-1.22s1.58-.43,2.45-.43,1.68.14,2.45.43,1.43.7,1.99,1.22c.56.53,1,1.16,1.33,1.91.33.74.49,1.57.49,2.48s-.16,1.74-.49,2.48c-.33.74-.77,1.38-1.33,1.91-.56.53-1.22.94-1.99,1.22s-1.58.43-2.45.43-1.68-.14-2.45-.43-1.43-.7-1.99-1.22c-.56-.53-1-1.16-1.33-1.91-.33-.74-.49-1.57-.49-2.48ZM109.5,43.9c0,.45.08.88.23,1.3.15.42.38.78.67,1.1.3.32.65.58,1.07.77.42.19.89.29,1.42.29s1-.1,1.42-.29c.42-.19.77-.45,1.07-.77.3-.32.52-.69.67-1.1.15-.42.23-.85.23-1.3s-.08-.88-.23-1.3c-.15-.42-.38-.78-.67-1.1-.3-.32-.65-.58-1.07-.77-.42-.19-.89-.29-1.42-.29s-1,.1-1.42.29c-.42.19-.77.45-1.07.77-.3.32-.52.69-.67,1.1-.15.42-.23.85-.23,1.3Z"/>
    <path d="M137.53,36.32c-.32-.46-.75-.8-1.28-1.02-.54-.22-1.1-.32-1.69-.32-.35,0-.69.04-1.02.12-.33.08-.62.21-.89.38-.26.18-.48.4-.64.68-.16.28-.24.61-.24,1,0,.58.2,1.02.6,1.32.4.3.9.57,1.49.79.59.22,1.24.44,1.94.65.7.21,1.35.5,1.94.86.59.37,1.09.86,1.49,1.46.4.61.6,1.42.6,2.42,0,.91-.17,1.71-.5,2.39-.34.68-.79,1.24-1.36,1.69-.57.45-1.23.78-1.98,1.01-.75.22-1.54.34-2.38.34-1.06,0-2.07-.18-3.05-.53-.98-.35-1.82-.94-2.52-1.78l2.28-2.21c.37.56.85,1,1.45,1.31s1.24.47,1.91.47c.35,0,.7-.05,1.06-.14.35-.1.67-.24.96-.43s.52-.44.7-.73c.18-.3.26-.64.26-1.02,0-.62-.2-1.1-.6-1.44-.4-.34-.9-.62-1.49-.85-.59-.23-1.24-.45-1.94-.66-.7-.21-1.35-.49-1.94-.85s-1.09-.84-1.49-1.44-.6-1.4-.6-2.41c0-.88.18-1.64.54-2.28.36-.64.83-1.17,1.42-1.6.58-.42,1.25-.74,2-.95s1.52-.31,2.3-.31c.9,0,1.76.14,2.6.41.84.27,1.6.72,2.27,1.34l-2.21,2.33Z"/>
    <path d="M142.14,43.9c0-.91.16-1.74.49-2.48.33-.74.77-1.38,1.33-1.91.56-.53,1.22-.94,1.99-1.22s1.58-.43,2.45-.43,1.68.14,2.45.43,1.43.7,1.99,1.22c.56.53,1,1.16,1.33,1.91.33.74.49,1.57.49,2.48s-.16,1.74-.49,2.48c-.33.74-.77,1.38-1.33,1.91-.56.53-1.22.94-1.99,1.22s-1.58.43-2.45.43-1.68-.14-2.45-.43-1.43-.7-1.99-1.22c-.56-.53-1-1.16-1.33-1.91-.33-.74-.49-1.57-.49-2.48ZM145.02,43.9c0,.45.08.88.23,1.3.15.42.38.78.67,1.1.3.32.65.58,1.07.77.42.19.89.29,1.42.29s1-.1,1.42-.29c.42-.19.77-.45,1.07-.77.3-.32.52-.69.67-1.1.15-.42.23-.85.23-1.3s-.08-.88-.23-1.3c-.15-.42-.38-.78-.67-1.1-.3-.32-.65-.58-1.07-.77-.42-.19-.89-.29-1.42-.29s-1,.1-1.42.29c-.42.19-.77.45-1.07.77-.3.32-.52.69-.67,1.1-.15.42-.23.85-.23,1.3Z"/>
    <path d="M158.38,40.59h-2.38v-2.45h2.38v-1.63c0-.8.06-1.52.17-2.17.11-.65.32-1.2.64-1.67.31-.46.75-.82,1.31-1.07.56-.25,1.29-.37,2.18-.37.66,0,1.26.06,1.82.17l-.19,2.45c-.21-.05-.41-.09-.6-.12-.19-.03-.39-.05-.6-.05-.4,0-.72.06-.96.19-.24.13-.43.3-.56.52-.14.22-.22.47-.26.76-.04.29-.06.59-.06.91v2.09h2.66v2.45h-2.66v9.07h-2.88v-9.07Z"/>
    <path d="M164.22,40.59v-2.45h2.38v-3.34h2.88v3.34h3.17v2.45h-3.17v5.04c0,.58.11,1.03.32,1.37.22.34.64.5,1.28.5.26,0,.54-.03.84-.08.3-.06.54-.15.72-.28v2.42c-.3.14-.68.24-1.12.3-.44.06-.83.08-1.16.08-.77,0-1.4-.08-1.88-.25-.49-.17-.87-.42-1.15-.77-.28-.34-.47-.77-.58-1.28-.1-.51-.16-1.1-.16-1.78v-5.28h-2.38Z"/>
    <path d="M173.33,38.14h3.12l2.5,8.06h.05l2.33-8.06h3.12l2.5,8.06h.05l2.4-8.06h2.9l-3.91,11.52h-2.86l-2.74-7.87h-.05l-2.42,7.87h-2.98l-4.01-11.52Z"/>
    <path d="M201.2,48.08h-.07c-.42.66-.94,1.13-1.58,1.43-.64.3-1.34.44-2.11.44-.53,0-1.04-.07-1.55-.22-.5-.14-.95-.36-1.34-.65-.39-.29-.71-.65-.95-1.08-.24-.43-.36-.94-.36-1.51,0-.62.11-1.16.34-1.6.22-.44.52-.81.9-1.1.38-.3.81-.53,1.31-.71.5-.18,1.01-.31,1.55-.4.54-.09,1.08-.14,1.62-.17.54-.02,1.06-.04,1.54-.04h.72v-.31c0-.72-.25-1.26-.74-1.62s-1.13-.54-1.9-.54c-.61,0-1.18.11-1.7.32-.53.22-.98.51-1.37.88l-1.51-1.51c.64-.66,1.39-1.13,2.24-1.42.86-.29,1.74-.43,2.65-.43.82,0,1.5.09,2.06.28.56.18,1.02.42,1.39.71.37.29.65.62.85,1,.2.38.34.76.43,1.14.09.38.14.76.16,1.12.02.36.02.68.02.95v6.62h-2.59v-1.58ZM201.03,44.5h-.6c-.4,0-.85.02-1.34.05-.5.03-.96.11-1.4.23-.44.12-.81.3-1.12.53-.3.23-.46.56-.46.97,0,.27.06.5.18.68.12.18.28.34.47.47.19.13.41.22.65.28.24.06.48.08.72.08.99,0,1.72-.24,2.2-.71s.71-1.12.71-1.93v-.65Z"/>
    <path d="M206.89,38.14h2.88v1.82h.05c.32-.67.78-1.19,1.37-1.56.59-.37,1.27-.55,2.04-.55.18,0,.35.02.52.05s.34.07.52.12v2.78c-.24-.06-.48-.12-.71-.16-.23-.04-.46-.06-.68-.06-.67,0-1.21.12-1.62.37-.41.25-.72.53-.94.85-.22.32-.36.64-.43.96-.07.32-.11.56-.11.72v6.17h-2.88v-11.52Z"/>
    <path d="M217.93,44.91c.1.86.43,1.54,1.01,2.02.58.48,1.27.72,2.09.72.72,0,1.32-.15,1.81-.44.49-.3.92-.67,1.28-1.12l2.06,1.56c-.67.83-1.42,1.42-2.26,1.78-.83.35-1.7.53-2.62.53-.86,0-1.68-.14-2.45-.43s-1.43-.7-1.99-1.22c-.56-.53-1-1.16-1.33-1.91-.33-.74-.49-1.57-.49-2.48s.16-1.74.49-2.48c.33-.74.77-1.38,1.33-1.91.56-.53,1.22-.94,1.99-1.22s1.58-.43,2.45-.43c.8,0,1.53.14,2.2.42.66.28,1.23.68,1.7,1.21.47.53.84,1.18,1.1,1.96.26.78.4,1.67.4,2.68v.79h-8.78ZM223.83,42.75c-.02-.85-.28-1.52-.79-2-.51-.49-1.22-.73-2.14-.73-.86,0-1.55.25-2.05.74s-.81,1.16-.92,1.99h5.9Z"/>
  </g>
</svg>